<svg
  fill="currentColor"
  viewBox="0 0 16 16"
  xmlns="http://www.w3.org/2000/svg"
>
  <path d="m12.73 3.32-2.05-2.05A1.74 1.74 0 0 0 9.45.75H4.5c-.98 0-1.75.8-1.75 1.75V13c0 .98.77 1.75 1.75 1.75h7c.96 0 1.75-.77 1.75-1.75V4.55c0-.46-.2-.9-.52-1.23m-.8 9.68c0 .25-.21.44-.43.44h-7a.43.43 0 0 1-.44-.44V2.53c0-.25.2-.44.44-.44h4.38v2.16c0 .5.38.88.87.88h2.16V13zM5.39 8.4c0 .39.27.66.65.66h3.94c.35 0 .65-.27.65-.65 0-.36-.3-.66-.65-.66H6.03c-.38 0-.66.3-.66.66Zm4.59 1.97H6.03c-.38 0-.66.3-.66.66 0 .38.28.66.66.66h3.94c.35 0 .65-.28.65-.66 0-.35-.3-.65-.65-.65Z"></path>
</svg>

