<svg
  fill="currentColor"
  viewBox="0 0 16 16"
  xmlns="http://www.w3.org/2000/svg"
>
  <path d="M10.63 3.38v.1c0 .44-.36.77-.8.77H6.14a.75.75 0 0 1-.76-.77v-.1a2.63 2.63 0 0 1 5.25 0m-8.56.19a.64.64 0 0 1 .9 0l2 2c.43-.28.92-.45 1.5-.45h3.06c.55 0 1.04.17 1.48.44l2-2a.64.64 0 0 1 .9 0c.27.28.27.69 0 .94l-1.97 2c.27.43.44.92.44 1.47h1.96c.36 0 .66.3.66.66 0 .38-.3.65-.66.65h-1.96v.22c0 .77-.2 1.45-.52 2.08l2.05 2.05c.27.27.27.68 0 .93a.6.6 0 0 1-.9 0l-1.95-1.92a4.43 4.43 0 0 1-6.15 0l-1.94 1.92a.6.6 0 0 1-.9 0c-.28-.25-.28-.66 0-.93l2.05-2.05a4.4 4.4 0 0 1-.5-2.08v-.22H1.67A.63.63 0 0 1 1 8.63c0-.36.27-.66.66-.66h1.97c0-.55.13-1.04.4-1.48l-1.96-2c-.28-.24-.28-.65 0-.92M4.94 9.5c0 1.48 1 2.7 2.4 3V8.4c0-.35.28-.65.66-.65.36 0 .66.3.66.66v4.1a3.08 3.08 0 0 0 2.4-3.01V7.97c0-.82-.7-1.53-1.53-1.53H6.47c-.85 0-1.53.7-1.53 1.53z"></path>
</svg>

