<svg
  fill="currentColor"
  viewBox="0 0 16 16"
  xmlns="http://www.w3.org/2000/svg"
>
  <path d="M14.95 12.67 11.99 1.73a1.34 1.34 0 0 0-1.26-.98c-.1 0-.21.03-.35.05l-1.67.47a.94.94 0 0 0-.44.2A1.33 1.33 0 0 0 7.13.74H5.38c-.25 0-.47.08-.66.2a1.5 1.5 0 0 0-.66-.2H2.31C1.57.75 1 1.35 1 2.06v11.38c0 .74.57 1.31 1.31 1.31h1.75c.22 0 .44-.05.66-.16.19.1.4.16.66.16h1.75c.7 0 1.3-.57 1.3-1.31V5.29l2.28 8.5c.16.58.68.96 1.28.96.11 0 .22 0 .33-.03l1.7-.46c.7-.2 1.12-.9.93-1.59M7.13 2.07v1.3H5.38v-1.3zM5.38 4.68h1.75v6.12H5.38V4.7ZM4.05 10.8H2.31V4.7h1.75v6.12Zm0-8.75v1.31H2.31v-1.3h1.75ZM2.31 13.44v-1.31h1.75v1.3zm3.06 0v-1.29l1.75-.03v1.32zM9.04 2.53l1.7-.44.32 1.23-1.7.47zm.68 2.51 1.7-.43L13 10.48l-1.7.44zM12 13.46l-.35-1.25 1.7-.47.35 1.26z"></path>
</svg>

