<svg
  fill="currentColor"
  viewBox="0 0 16 16"
  xmlns="http://www.w3.org/2000/svg"
>
  <path d="M14.78 3.38a1.08 1.08 0 0 0-.87 1.75l-2.46 1.96a.84.84 0 0 1-.55.2.9.9 0 0 1-.77-.5L8.55 3.65c.32-.2.52-.52.52-.93 0-.6-.47-1.1-1.07-1.1-.63 0-1.12.5-1.12 1.1 0 .4.22.74.52.93L5.84 6.79c-.14.3-.46.5-.77.5a.84.84 0 0 1-.54-.2L2.07 5.13c.13-.2.22-.42.22-.66a1.1 1.1 0 0 0-2.19 0c0 .63.49 1.1 1.1 1.1l1.39 7.6a.9.9 0 0 0 .87.7h9.05c.41 0 .8-.3.85-.7l1.4-7.6h.02a1.1 1.1 0 0 0 0-2.19m-2.65 9.18H3.84l-.93-5.08.8.63A2.16 2.16 0 0 0 7 7.4l1-1.96.96 1.94a2.18 2.18 0 0 0 3.31.72l.79-.63z"></path>
</svg>

